<?xml version="1.0" standalone="no"?>
<!DOCTYPE svg PUBLIC "-//W3C//DTD SVG 20010904//EN"
 "http://www.w3.org/TR/2001/REC-SVG-20010904/DTD/svg10.dtd">
<svg version="1.0" xmlns="http://www.w3.org/2000/svg"
 width="332.000000pt" height="237.000000pt" viewBox="0 0 332.000000 237.000000"
 preserveAspectRatio="xMidYMid meet">

<g transform="translate(0.000000,237.000000) scale(0.100000,-0.100000)"
fill="#000000" stroke="none">
<path d="M1207 1958 c-20 -6 -42 -19 -48 -29 -5 -11 -14 -17 -19 -14 -5 3 -12
0 -16 -6 -5 -8 -3 -9 6 -4 10 6 12 3 8 -11 -3 -11 1 -25 8 -32 18 -17 27 -15
20 4 -3 8 1 22 9 30 8 9 15 11 15 5 0 -16 40 -24 55 -11 11 9 15 9 15 1 0 -6
-5 -11 -11 -11 -5 0 -8 -4 -5 -9 8 -12 -36 -22 -49 -11 -8 7 -12 5 -12 -5 0
-7 5 -13 11 -12 16 3 8 -42 -11 -61 -15 -16 -15 -17 0 -20 9 -2 17 -12 17 -23
0 -10 5 -19 11 -19 6 0 9 9 6 20 -3 11 -1 23 4 26 5 3 5 13 -1 24 -7 14 -5 24
10 42 15 18 19 20 20 6 0 -9 -6 -18 -12 -21 -7 -2 -10 -7 -7 -11 3 -4 18 -2
33 4 36 13 73 3 89 -24 6 -11 14 -61 17 -111 l5 -90 70 -1 c39 -1 75 3 82 8
19 15 7 200 -15 252 -46 102 -171 150 -305 114z m51 -34 c-9 -9 -21 -13 -28
-9 -14 9 5 25 30 25 12 0 12 -3 -2 -16z m48 7 c-3 -5 13 -17 37 -27 55 -23 67
-25 67 -11 0 6 6 2 14 -8 8 -11 12 -23 10 -27 -2 -4 1 -10 7 -14 7 -4 9 -3 5
4 -3 6 -2 13 3 17 15 9 31 -28 25 -58 -3 -21 -1 -25 12 -20 13 5 15 2 9 -15
-4 -13 -2 -22 4 -22 6 0 11 -5 11 -11 0 -6 -6 -9 -13 -6 -8 3 -20 1 -28 -4
-11 -7 -10 -11 6 -23 11 -8 23 -12 27 -10 4 2 9 0 13 -6 3 -5 -1 -10 -9 -10
-9 0 -15 -3 -15 -7 4 -25 -3 -35 -21 -30 -11 3 -23 1 -26 -4 -3 -5 -10 -9 -15
-9 -6 0 -7 5 -4 11 4 5 -1 19 -10 29 -10 11 -15 26 -11 35 3 9 2 13 -4 10 -15
-9 -12 7 10 50 11 22 20 36 20 32 0 -5 5 -5 12 -1 8 5 6 10 -7 14 -11 4 -20
16 -20 28 0 29 -19 33 -23 5 -3 -19 -6 -21 -28 -11 -17 8 -24 20 -25 42 0 17
-3 25 -6 18 -2 -6 -8 -10 -12 -8 -4 3 -7 -5 -7 -17 1 -17 -5 -23 -29 -25 -29
-2 -29 -2 -10 14 14 11 16 18 8 21 -15 6 -17 33 -3 33 6 0 10 7 10 15 0 8 5
15 11 15 5 0 8 -4 5 -9z m-96 -161 c0 -5 -2 -10 -4 -10 -3 0 -8 5 -11 10 -3 6
-1 10 4 10 6 0 11 -4 11 -10z"/>
<path d="M1707 1941 c-3 -13 3 -22 20 -30 32 -14 33 -14 33 7 0 38 -44 57 -53
23z"/>
<path d="M2327 1954 c-4 -4 -7 -11 -7 -15 0 -8 39 -22 60 -20 9 0 10 -2 3 -5
-7 -3 -9 -12 -6 -21 5 -14 3 -13 -19 1 -24 16 -26 16 -32 0 -5 -12 -2 -15 10
-10 9 4 23 1 31 -5 18 -15 21 -11 27 34 3 24 0 37 -7 37 -7 0 -21 3 -32 6 -11
3 -24 2 -28 -2z"/>
<path d="M1594 1932 c3 -9 8 -41 11 -71 3 -30 9 -70 14 -90 5 -20 12 -61 16
-91 6 -52 22 -143 47 -270 6 -30 12 -71 14 -90 3 -35 25 -159 47 -275 l12 -60
68 -3 c65 -3 68 -2 77 24 6 14 17 70 24 123 30 208 61 371 71 368 12 -4 19
-35 40 -182 18 -124 54 -314 62 -327 2 -5 33 -8 69 -8 75 0 75 0 94 120 7 41
19 108 26 149 8 40 17 94 19 120 3 25 9 66 14 91 5 25 11 67 15 94 5 44 4 47
-9 30 -14 -18 -14 -18 -13 7 1 16 8 26 17 25 10 -1 18 18 27 64 6 36 8 66 3
68 -5 2 -2 10 6 19 8 8 14 31 14 51 -1 20 -3 29 -6 20 -2 -10 -8 -18 -13 -18
-5 0 -7 7 -4 15 4 8 2 15 -3 15 -5 0 -9 -9 -10 -21 -1 -12 -10 -27 -20 -35
-13 -10 -14 -13 -3 -9 12 4 16 -1 14 -22 -2 -37 -1 -35 -25 -65 -18 -22 -26
-25 -40 -17 -15 7 -19 6 -19 -6 0 -8 4 -15 9 -15 4 0 6 -11 4 -24 -3 -16 -10
-23 -19 -19 -8 3 -17 -2 -20 -12 -4 -9 -12 -14 -19 -11 -9 3 -14 -14 -19 -57
-4 -39 -2 -63 4 -65 5 -2 10 -8 10 -14 0 -6 -7 -8 -15 -4 -9 3 -15 0 -15 -9 0
-31 -19 -13 -25 23 -13 78 -17 92 -26 92 -4 0 -6 -15 -4 -32 3 -18 2 -27 -1
-20 -5 10 -9 10 -20 1 -19 -16 -18 -43 1 -35 22 8 18 -12 -4 -24 -27 -14 -29
-13 -28 13 0 12 -3 30 -8 41 -7 15 -5 17 12 12 16 -5 19 -1 19 24 0 32 -10 40
-19 16 -3 -8 -1 -17 6 -19 7 -3 -1 -4 -18 -2 -16 1 -31 8 -33 15 -3 7 0 10 7
6 6 -4 11 -2 11 3 0 14 -13 14 -27 0 -19 -19 -47 15 -33 41 9 16 8 20 -5 20
-9 0 -15 -6 -13 -12 3 -7 -2 -20 -10 -28 -14 -13 -14 -15 2 -18 13 -3 15 -7 5
-18 -6 -7 -15 -11 -20 -8 -5 3 -9 1 -9 -4 0 -5 9 -12 20 -15 11 -3 20 -12 20
-21 0 -18 -8 -20 -29 -7 -18 11 -38 4 -45 -16 -5 -13 -4 -14 8 -4 8 7 19 10
24 7 13 -8 13 -86 1 -86 -5 0 -9 6 -9 13 0 6 -12 23 -26 36 -17 17 -22 27 -14
35 13 13 13 29 0 21 -16 -10 -12 21 5 35 8 7 15 18 15 24 0 7 -4 6 -9 -2 -4
-8 -12 -12 -17 -10 -9 3 -21 -39 -23 -85 -1 -20 5 -30 23 -36 30 -12 39 -36
20 -56 -8 -8 -12 -19 -9 -25 3 -5 1 -10 -4 -10 -14 0 -14 33 0 47 8 8 8 13 0
17 -6 4 -11 2 -11 -3 0 -6 -4 -11 -9 -11 -5 0 -7 8 -4 19 3 13 -2 20 -20 25
-20 5 -23 10 -19 32 4 23 2 26 -12 21 -10 -4 -22 -7 -27 -7 -5 0 -9 -10 -10
-22 0 -20 -2 -19 -11 7 -6 17 -15 35 -20 42 -6 8 -3 21 7 37 18 28 6 36 -15
11 -10 -12 -16 -13 -27 -4 -8 7 -12 18 -9 26 3 7 0 13 -7 14 -7 1 -1 5 13 9
18 6 20 8 7 9 -11 1 -15 5 -11 13 5 7 2 9 -8 5 -12 -4 -14 -1 -10 15 2 11 -1
24 -8 28 -11 6 -9 12 5 26 17 17 17 18 -3 27 -31 14 -34 53 -4 73 13 9 22 11
18 6 -3 -6 -2 -13 3 -17 11 -6 33 29 24 39 -15 15 -55 5 -60 -14 -7 -25 -22
-26 -25 -2 -5 55 -2 79 11 95 14 17 14 20 -4 30 -19 11 -18 12 10 18 27 6 26
7 -13 8 -37 1 -43 -2 -38 -17z m704 -292 c-14 -21 -28 -27 -28 -10 0 6 5 10
11 10 5 0 7 5 4 10 -3 6 1 10 9 10 14 0 14 -3 4 -20z m-28 -76 c0 4 11 -6 25
-22 26 -31 32 -52 16 -52 -14 0 -23 18 -12 22 5 1 3 9 -5 16 -12 11 -14 9 -14
-8 0 -24 -15 -26 -25 -3 -3 10 -1 19 6 22 7 2 -1 10 -17 18 -16 7 -21 11 -10
8 14 -4 17 -1 12 12 -5 15 -4 15 9 -1 8 -11 15 -16 15 -12z m-570 -34 c0 -5
-4 -10 -10 -10 -5 0 -10 5 -10 10 0 6 5 10 10 10 6 0 10 -4 10 -10z m350 -40
c0 -5 -5 -10 -11 -10 -5 0 -7 5 -4 10 3 6 8 10 11 10 2 0 4 -4 4 -10z m-320
-20 c0 -5 -4 -10 -10 -10 -5 0 -10 5 -10 10 0 6 5 10 10 10 6 0 10 -4 10 -10z
m320 -21 c0 -18 -2 -19 -15 -5 -8 8 -15 17 -15 20 0 3 7 6 15 6 9 0 15 -9 15
-21z m214 5 c10 -25 -1 -29 -14 -5 -6 12 -7 21 -1 21 5 0 12 -7 15 -16z m-164
-25 c0 -5 6 -7 13 -3 6 4 3 -2 -7 -15 -20 -22 -40 -12 -29 16 6 16 23 18 23 2z
m-275 -35 l17 -26 -30 18 c-17 10 -29 21 -26 26 9 14 21 9 39 -18z m230 16 c3
-5 1 -10 -4 -10 -6 0 -11 5 -11 10 0 6 2 10 4 10 3 0 8 -4 11 -10z m202 -22
c-3 -8 -6 -5 -6 6 -1 11 2 17 5 13 3 -3 4 -12 1 -19z m-129 0 c-6 -18 -28 -21
-28 -4 0 9 7 16 16 16 9 0 14 -5 12 -12z m-312 -36 c-9 -8 -26 10 -26 26 1 15
2 15 15 -2 8 -11 13 -21 11 -24z m259 28 c3 -5 1 -10 -4 -10 -6 0 -11 5 -11
10 0 6 2 10 4 10 3 0 8 -4 11 -10z m-305 -10 c0 -5 -6 -10 -12 -10 -9 0 -8 -4
2 -10 9 -6 10 -10 3 -10 -6 0 -15 5 -18 10 -7 12 2 30 16 30 5 0 9 -4 9 -10z
m50 -58 c0 -20 -8 -32 -30 -45 -26 -16 -30 -16 -30 -3 0 13 48 75 58 76 1 0 2
-13 2 -28z m314 3 c-15 -13 -30 -22 -33 -20 -6 6 39 45 52 45 6 0 -3 -11 -19
-25z m-349 5 c-3 -5 -13 -10 -21 -10 -8 0 -12 5 -9 10 3 6 13 10 21 10 8 0 12
-4 9 -10z m150 -30 c-3 -5 -10 -10 -16 -10 -5 0 -9 5 -9 10 0 6 7 10 16 10 8
0 12 -4 9 -10z m272 -28 c-10 -2 -17 -13 -17 -25 0 -27 -36 -75 -47 -63 -4 5
-2 11 5 13 6 3 10 9 6 14 -3 5 3 9 13 10 16 0 16 1 -2 8 -23 9 -61 -9 -43 -20
6 -4 7 -12 3 -19 -6 -10 -11 -9 -22 5 -23 33 -15 49 40 75 37 18 56 22 66 15
12 -8 11 -11 -2 -13z m-357 -8 c-13 -33 -13 -34 5 -34 8 0 15 4 15 8 0 4 9 8
20 8 11 0 20 -4 20 -8 0 -4 -6 -8 -14 -8 -8 0 -24 -12 -36 -27 -13 -17 -19
-21 -16 -10 5 15 2 17 -15 12 -14 -5 -19 -3 -15 3 4 7 -4 10 -24 7 -16 -2 -30
1 -30 6 0 8 22 13 43 10 4 -1 5 11 2 26 -6 26 -5 27 9 10 14 -18 15 -18 26 2
15 29 21 26 10 -5z m-50 -74 c0 -5 -5 -10 -11 -10 -5 0 -7 5 -4 10 3 6 8 10
11 10 2 0 4 -4 4 -10z m396 -17 c-10 -10 -19 5 -10 18 6 11 8 11 12 0 2 -7 1
-15 -2 -18z m-361 -3 c3 -5 -1 -10 -10 -10 -9 0 -13 5 -10 10 3 6 8 10 10 10
2 0 7 -4 10 -10z m32 -25 c-10 -7 -19 -26 -19 -43 -1 -24 -5 -28 -20 -24 -20
5 -19 29 2 24 8 -2 10 3 6 13 -3 9 -6 19 -6 21 0 2 -4 4 -10 4 -5 0 -10 -7
-10 -15 0 -8 -4 -15 -9 -15 -5 0 -7 9 -4 19 3 11 -1 21 -9 24 -7 2 -3 3 9 1
11 -2 28 -6 36 -10 9 -3 16 3 20 18 5 18 9 20 19 10 11 -11 10 -16 -5 -27z
m390 29 c-3 -3 -12 -4 -19 -1 -8 3 -5 6 6 6 11 1 17 -2 13 -5z m-105 -17 c15
-15 48 -19 48 -5 0 4 10 7 23 7 16 -1 18 -2 5 -6 -10 -2 -18 -8 -18 -13 0 -16
-32 -19 -54 -5 -12 8 -26 12 -29 8 -4 -3 -7 1 -7 10 0 20 14 22 32 4z m48 -63
c0 -9 -5 -14 -12 -12 -18 6 -21 28 -4 28 9 0 16 -7 16 -16z m-46 -29 c3 -8 1
-15 -3 -15 -5 0 -11 7 -15 15 -3 8 -1 15 3 15 5 0 11 -7 15 -15z"/>
<path d="M1956 1938 c5 -7 2 -9 -8 -5 -12 4 -17 -2 -20 -28 -4 -38 1 -62 11
-47 9 14 51 25 51 13 0 -6 5 -11 11 -11 8 0 8 4 0 14 -12 14 -5 46 10 46 5 0
9 7 9 15 0 11 -11 15 -36 15 -24 0 -33 -4 -28 -12z"/>
<path d="M2035 1939 c-4 -6 0 -18 9 -28 9 -10 16 -24 16 -32 0 -12 2 -11 10 1
14 22 12 30 -7 31 -17 0 -17 1 -1 7 10 4 14 12 10 17 -10 14 -30 16 -37 4z"/>
<path d="M2238 1920 c-4 -24 -1 -30 14 -30 28 0 33 4 31 23 -2 9 2 17 7 17 6
0 10 5 10 10 0 6 -13 10 -29 10 -24 0 -29 -5 -33 -30z"/>
<path d="M1075 1839 c-27 -60 -21 -84 20 -69 13 5 26 6 30 2 3 -3 3 1 -1 11
-3 9 -10 17 -16 17 -5 0 -6 5 -3 10 4 6 16 8 28 5 21 -6 21 -5 4 8 -13 11 -15
16 -5 20 9 3 7 11 -10 26 l-22 22 -25 -52z"/>
<path d="M1740 1880 c0 -5 5 -10 10 -10 6 0 10 5 10 10 0 6 -4 10 -10 10 -5 0
-10 -4 -10 -10z"/>
<path d="M1912 1809 c0 -16 4 -31 9 -34 5 -4 9 -13 9 -21 0 -8 -4 -12 -10 -9
-10 6 -14 -6 -10 -39 1 -10 -3 -15 -8 -12 -5 3 -12 -4 -16 -17 -9 -36 -7 -47
9 -41 8 4 12 10 10 15 -3 5 1 22 10 39 8 16 13 30 10 30 -4 0 1 10 9 22 12 16
13 25 4 35 -8 10 -7 17 5 26 15 11 15 13 -7 23 -21 10 -23 8 -24 -17z"/>
<path d="M2077 1803 c-4 -3 -7 -11 -7 -17 0 -6 5 -5 12 2 6 6 9 14 7 17 -3 3
-9 2 -12 -2z"/>
<path d="M2270 1790 c0 -5 5 -10 11 -10 5 0 7 5 4 10 -3 6 -8 10 -11 10 -2 0
-4 -4 -4 -10z"/>
<path d="M2291 1746 c-9 -11 -8 -15 5 -20 9 -4 20 -3 23 0 3 4 0 9 -7 11 -6 3
-10 9 -6 14 8 14 -2 11 -15 -5z"/>
<path d="M1063 1743 c-16 -6 -17 -43 -1 -43 9 0 9 -3 0 -12 -15 -15 -17 -272
-2 -263 6 3 10 1 10 -4 0 -6 -4 -11 -9 -11 -5 0 -8 -39 -8 -87 2 -82 3 -88 24
-91 17 -3 20 1 16 16 -2 11 0 23 6 26 6 4 11 15 10 24 0 11 -3 12 -6 5 -7 -19
-23 -16 -23 5 0 10 -6 24 -12 31 -11 12 -10 13 6 7 16 -5 17 -4 6 9 -14 17 0
21 17 4 7 -7 12 -6 16 5 4 9 3 16 -2 16 -5 0 -11 12 -15 28 -3 15 -8 37 -12
50 -5 16 -2 22 9 22 10 0 13 6 10 20 -3 11 -9 20 -14 20 -5 0 -9 5 -9 11 0 5
5 7 12 3 17 -11 68 -12 68 -2 0 4 5 8 10 8 6 0 10 -9 10 -21 0 -14 5 -19 18
-17 20 4 25 46 8 67 -8 11 -8 13 0 8 8 -5 12 13 13 59 1 61 -1 66 -19 61 -17
-4 -20 0 -21 26 l-1 32 -10 -37 c-10 -37 -21 -47 -33 -29 -3 5 -1 12 5 16 14
9 12 37 -2 33 -27 -9 -24 -50 5 -80 30 -30 48 -39 27 -13 -14 17 -8 31 9 20
18 -11 12 -37 -9 -42 -11 -3 -20 -9 -20 -13 0 -4 -11 -5 -25 -2 -14 2 -22 8
-19 13 3 5 2 9 -3 9 -4 0 -9 23 -10 51 -1 53 -9 70 -30 62z m101 -184 c-24
-27 -70 -22 -66 6 5 28 9 30 27 15 12 -10 15 -10 16 1 0 10 2 11 6 2 5 -14 24
-18 22 -5 -3 16 3 26 8 14 3 -7 -3 -22 -13 -33z"/>
<path d="M2037 1689 c-4 -16 -3 -18 9 -8 7 6 11 15 8 20 -8 13 -11 11 -17 -12z"/>
<path d="M2096 1635 c-3 -9 0 -15 9 -15 16 0 20 16 6 24 -5 3 -11 -1 -15 -9z"/>
<path d="M1754 1618 c-5 -8 -2 -9 9 -5 21 8 32 -10 17 -28 -10 -12 -10 -15 -1
-15 8 0 10 -8 6 -20 -4 -11 -2 -20 4 -20 6 0 11 -9 11 -20 0 -11 5 -20 11 -20
10 0 4 53 -9 75 -4 6 -5 18 -3 29 4 28 -31 47 -45 24z"/>
<path d="M1879 1618 c0 -2 -2 -16 -4 -33 -3 -27 -2 -28 9 -12 7 9 24 17 37 17
23 0 23 1 -5 15 -28 15 -35 17 -37 13z"/>
<path d="M2070 1610 c0 -5 5 -10 11 -10 5 0 7 5 4 10 -3 6 -8 10 -11 10 -2 0
-4 -4 -4 -10z"/>
<path d="M2100 1584 c0 -8 5 -12 10 -9 6 3 10 10 10 16 0 5 -4 9 -10 9 -5 0
-10 -7 -10 -16z"/>
<path d="M1726 1574 c-6 -16 2 -18 22 -5 11 7 11 9 -1 14 -9 3 -18 -1 -21 -9z"/>
<path d="M1175 1463 c-3 -10 -1 -19 4 -21 6 -2 11 -8 11 -14 0 -5 -9 -6 -21
-3 -17 6 -20 3 -17 -12 3 -12 11 -17 26 -16 18 2 22 -2 22 -23 0 -14 -4 -23
-10 -19 -5 3 -7 13 -4 23 5 15 4 15 -6 -1 -6 -9 -8 -26 -5 -37 4 -12 2 -20 -5
-20 -8 0 -8 -6 0 -20 7 -13 7 -26 2 -37 -6 -10 -6 -28 -1 -40 12 -32 23 -29
16 5 -2 15 -1 36 3 47 7 17 9 17 9 3 1 -28 21 -21 21 8 0 14 -4 23 -10 19 -5
-3 -10 3 -10 14 0 12 4 21 10 21 12 0 10 111 -3 128 -13 17 -24 15 -32 -5z"/>
<path d="M1377 1363 c-4 -3 -7 -29 -7 -57 1 -42 3 -48 13 -35 7 9 18 14 26 11
9 -3 12 0 9 10 -8 21 31 16 47 -5 7 -9 16 -17 20 -17 4 0 2 6 -4 14 -7 8 -8
17 -3 20 12 7 34 -18 31 -36 -3 -27 1 -38 16 -38 11 0 15 12 15 51 0 28 -5 59
-10 70 -13 24 -52 25 -73 1 -20 -21 -76 -30 -58 -9 15 19 -5 38 -22 20z"/>
<path d="M1125 1300 c3 -5 8 -10 11 -10 2 0 4 5 4 10 0 6 -5 10 -11 10 -5 0
-7 -4 -4 -10z"/>
<path d="M1370 1221 c0 -12 5 -21 10 -21 6 0 10 6 10 14 0 8 -4 18 -10 21 -5
3 -10 -3 -10 -14z"/>
<path d="M1060 1191 c7 -13 7 -20 0 -23 -7 -2 -7 -14 0 -35 8 -22 16 -30 26
-26 11 4 12 9 5 16 -17 17 -13 45 8 49 15 2 12 7 -15 20 -34 17 -34 17 -24 -1z"/>
<path d="M1515 1190 c4 -6 11 -8 16 -5 14 9 11 15 -7 15 -8 0 -12 -5 -9 -10z"/>
<path d="M1109 1080 c-3 -17 1 -32 13 -44 16 -17 18 -18 18 -3 0 9 -4 17 -9
17 -5 0 -11 12 -13 28 l-3 27 -6 -25z"/>
<path d="M1085 1080 c3 -5 8 -10 11 -10 2 0 4 5 4 10 0 6 -5 10 -11 10 -5 0
-7 -4 -4 -10z"/>
<path d="M1386 997 c3 -10 9 -15 12 -12 3 3 0 11 -7 18 -10 9 -11 8 -5 -6z"/>
<path d="M1230 985 c0 -8 4 -15 10 -15 5 0 7 7 4 15 -4 8 -8 15 -10 15 -2 0
-4 -7 -4 -15z"/>
<path d="M2802 635 c-15 -33 -15 -48 0 -63 9 -9 17 -2 35 30 19 32 21 43 11
50 -22 13 -34 9 -46 -17z"/>
<path d="M1066 593 c-7 -16 -28 -68 -45 -118 -36 -100 -82 -187 -89 -166 -2 7
8 44 23 83 26 67 27 70 9 83 -23 17 -43 2 -85 -65 -32 -50 -39 -41 -12 15 15
31 15 37 3 46 -26 16 -44 5 -78 -46 -33 -48 -36 -33 -6 26 10 20 10 29 1 38
-19 19 -36 13 -52 -19 -20 -39 -42 -38 -75 2 -25 30 -29 31 -54 20 -19 -8 -37
-33 -58 -77 -22 -49 -44 -77 -85 -110 -60 -49 -96 -57 -113 -24 -26 47 32 202
95 258 67 58 85 29 40 -66 -27 -59 -22 -67 17 -25 62 66 67 111 16 146 -40 28
-75 20 -122 -27 -93 -93 -132 -252 -77 -311 29 -31 72 -41 103 -25 13 6 40 27
61 47 l37 36 0 -26 c0 -28 31 -58 60 -58 27 0 61 45 84 111 12 34 28 65 35 67
11 4 12 -1 7 -19 -4 -13 -10 -49 -13 -79 -4 -46 -2 -58 12 -70 11 -9 20 -11
22 -5 2 6 16 37 32 70 l29 60 -5 -51 c-5 -46 -3 -53 15 -63 20 -11 24 -6 57
56 33 65 35 66 29 28 -4 -22 -6 -42 -6 -45 0 -22 5 -31 23 -40 17 -9 25 -8 40
6 19 18 20 17 14 -22 -6 -33 -3 -42 19 -63 14 -13 32 -21 40 -18 20 8 60 87
81 160 21 74 40 86 30 20 -5 -41 -3 -53 15 -76 45 -57 103 -18 134 91 9 33 23
63 31 66 21 8 19 -8 -10 -81 -20 -49 -23 -67 -15 -83 16 -30 27 -24 35 18 6
31 61 178 72 191 2 3 8 0 14 -6 8 -8 3 -35 -17 -97 -27 -83 -27 -86 -9 -106
24 -26 40 -25 62 4 l18 24 22 -26 c21 -27 21 -27 42 -8 23 21 87 143 79 151
-2 3 -20 -18 -38 -47 -19 -28 -35 -47 -37 -41 -2 6 11 56 29 110 l33 98 60 1
c81 2 79 2 65 19 -8 10 -30 15 -62 15 -45 0 -48 2 -39 19 8 15 7 20 -5 25 -29
11 -44 6 -50 -18 -6 -24 -36 -36 -91 -36 -14 0 -21 -4 -18 -10 3 -5 24 -10 46
-10 21 0 39 -1 39 -3 0 -2 -11 -35 -24 -74 -22 -65 -74 -158 -83 -150 -2 3 6
34 18 71 l22 67 -29 30 c-24 25 -26 33 -17 48 14 22 0 41 -29 41 -19 0 -43
-44 -33 -61 3 -5 1 -18 -5 -29 -16 -30 -53 -25 -78 10 -28 37 -54 38 -82 3
-11 -16 -30 -39 -40 -53 l-20 -25 -19 23 c-12 13 -25 20 -35 16 -9 -3 -16 -5
-16 -3 0 8 42 114 55 139 11 20 11 30 2 39 -18 18 -36 13 -51 -16z m159 -264
c-10 -21 -25 -45 -33 -52 -13 -10 -15 -6 -9 38 3 28 13 68 23 90 l17 40 10
-38 c7 -30 6 -47 -8 -78z m-601 19 c-17 -51 -33 -78 -44 -78 -20 0 -12 48 26
150 4 11 8 8 18 -10 10 -20 10 -32 0 -62z m446 22 c0 -19 -61 -169 -71 -176
-11 -6 -6 18 22 119 13 43 25 67 34 67 8 0 15 -5 15 -10z"/>
<path d="M2215 551 l-27 -68 -30 11 c-27 10 -32 9 -53 -18 -13 -16 -33 -55
-44 -86 -12 -31 -31 -65 -42 -76 -22 -19 -22 -19 -14 6 4 14 18 51 30 82 l24
58 -21 15 c-27 18 -31 15 -73 -48 -37 -55 -45 -52 -19 8 17 41 13 65 -11 65
-16 0 -54 -70 -55 -100 0 -8 -14 -35 -30 -60 -37 -56 -39 -34 -4 66 14 41 22
78 19 84 -9 14 -43 12 -48 -2 -3 -10 -7 -10 -20 0 -48 40 -113 -48 -124 -166
-8 -90 28 -124 66 -62 l18 31 17 -26 c20 -31 40 -32 60 -3 9 12 17 20 18 17 2
-2 8 -13 14 -23 19 -35 28 -27 61 46 18 39 35 69 38 66 3 -3 1 -17 -5 -32 -16
-43 -12 -64 16 -83 26 -16 27 -16 43 3 l17 21 17 -24 c24 -31 43 -29 62 7 l16
30 24 -27 c25 -28 25 -28 41 -8 21 26 78 145 72 151 -3 2 -19 -19 -37 -47 -17
-28 -34 -50 -36 -47 -6 6 35 136 70 222 22 56 25 70 14 77 -28 17 -38 8 -64
-60z m-415 -101 c0 -16 -74 -160 -82 -160 -14 0 29 126 55 158 11 14 27 16 27
2z m369 -28 c-15 -43 -78 -149 -79 -131 0 26 39 131 56 151 23 24 35 14 23
-20z"/>
<path d="M2856 548 c-18 -40 -43 -102 -55 -138 -12 -36 -31 -76 -42 -90 l-21
-25 6 33 c3 18 17 61 31 95 25 62 22 76 -13 77 -16 0 -44 -64 -66 -153 -16
-63 -16 -71 -1 -93 20 -31 38 -30 60 3 l18 26 14 -26 c19 -37 32 -34 75 15 37
42 37 42 38 16 0 -29 23 -58 45 -58 8 0 23 17 34 37 11 21 20 31 21 22 0 -9 9
-24 21 -35 20 -18 21 -18 36 1 21 28 76 145 71 151 -3 2 -19 -19 -37 -47 -17
-28 -34 -49 -37 -47 -6 7 53 193 77 240 24 47 24 55 -2 63 -25 8 -31 1 -60
-76 -21 -56 -21 -56 -49 -46 -37 14 -63 -7 -86 -72 -15 -41 -87 -131 -105
-131 -15 0 10 59 45 105 44 57 86 137 86 163 0 20 -39 62 -58 62 -6 0 -27 -33
-46 -72z m46 -53 c-17 -36 -33 -65 -36 -65 -7 0 18 69 39 110 30 59 28 22 -3
-45z m130 -61 c-2 -10 -22 -50 -43 -89 -39 -68 -40 -69 -34 -30 9 57 52 148
67 142 7 -2 11 -13 10 -23z"/>
<path d="M2402 543 c-25 -82 -48 -174 -56 -227 -4 -33 -1 -42 24 -67 16 -16
33 -29 39 -29 14 0 47 49 71 106 l20 49 -5 -48 c-6 -43 -4 -50 24 -77 37 -37
54 -38 79 -2 31 43 87 160 116 241 l27 74 -22 24 c-13 12 -25 23 -28 23 -3 0
-14 -32 -23 -71 -19 -79 -118 -291 -125 -270 -7 19 16 154 39 229 19 62 19 64
1 78 -10 7 -22 12 -27 11 -4 -2 -21 -36 -36 -77 -47 -131 -112 -251 -126 -237
-10 9 32 178 62 252 22 56 23 61 7 73 -30 22 -40 13 -61 -55z"/>
</g>
</svg>
